# xmcd
#
# Track frame offsets: 
#        150
#        14084
#        25113
#        45032
#        56500
#        69047
#        86005
#        99058
#        113827
#        132128
#
# Disc length: 2015 seconds
#
# Revision: 0
# Processed by: cddbd v1.5.2PL0 Copyright (c) Steve Scherf et al.
# Submitted via: ExactAudioCopyFreeDBPlugin 1.0
#
DISCID=6b07dd0a
DTITLE=Jackie Lawson - Crazy Blonde
DYEAR=2007
DGENRE=Country
TTITLE0=Crazy Blonde Behind the Wheel
TTITLE1=Stubborn
TTITLE2=Don't Let Me Love You
TTITLE3=Give Me a Break (Busy, Busy, Busy)
TTITLE4=Just Go
TTITLE5=Stranger
TTITLE6=Everything I'm Not
TTITLE7=A Fool and Her Heart
TTITLE8=The First to Fall
TTITLE9=When You're Here
EXTD=
EXTT0=
EXTT1=
EXTT2=
EXTT3=
EXTT4=
EXTT5=
EXTT6=
EXTT7=
EXTT8=
EXTT9=
PLAYORDER=
